<svg id="bold" enable-background="new 0 0 24 24" height="512" viewBox="0 0 24 24" width="512" xmlns="http://www.w3.org/2000/svg"><path d="m2.43 15.67 13.688-13.698c.141-.142.332-.222.531-.222h.001c.199 0 .39.079.53.22l4.85 4.85c.141.141.22.332.22.53 0 .199-.079.39-.22.531l-13.7 13.69z"/><path d="m22.568 5.943.493-.493c.605-.606.939-1.405.939-2.25 0-.864-.336-1.668-.937-2.258-1.202-1.214-3.315-1.213-4.514-.002l-.493.493z"/><path d="m2.024 16.678-1.99 6.348c-.083.266-.012.557.186.754.142.143.334.22.53.22.075 0 .15-.011.225-.034l6.347-1.99z"/><path d="m6.97 8.788c.192 0 .384-.073.53-.22l4.842-4.842c.259-.258.605-.36.944-.335l1.184-1.185c-1.024-.548-2.326-.403-3.189.459l-4.842 4.842c-.293.293-.293.768 0 1.061.147.146.338.22.531.22z"/></svg>